<?xml version="1.0" encoding="UTF-8" standalone="no"?>
<svg xmlns="http://www.w3.org/2000/svg" version="1.2" baseProfile="tiny" viewBox="0.00 0.00 618.00 618.00">
<g stroke-width="2.00" fill="none" stroke-linecap="butt">
<path stroke="#ffb686" vector-effect="non-scaling-stroke" d="
  M 495.02 270.68
  Q 493.44 271.36 492.43 269.99
  C 487.93 263.89 477.02 259.25 470.16 256.64
  C 436.27 243.78 397.15 245.54 365.30 263.33
  Q 361.19 265.62 357.43 268.66
  A 1.22 1.21 65.9 0 0 356.99 269.83
  Q 357.22 271.16 357.71 272.73
  Q 380.90 347.31 404.49 421.76
  C 405.32 424.39 406.05 425.88 404.65 428.52
  Q 402.32 432.91 398.71 437.72
  C 383.84 457.56 365.45 472.83 341.76 480.77
  C 294.35 496.64 247.61 472.59 221.23 432.50
  C 219.47 429.83 217.59 426.95 218.35 424.54
  Q 242.52 347.37 266.74 270.47
  Q 267.15 269.15 266.02 268.36
  C 229.25 242.77 176.76 241.87 138.27 263.98
  Q 136.44 265.03 134.13 267.60
  Q 132.28 269.66 130.28 268.22"
/>
<path stroke="#ffb686" vector-effect="non-scaling-stroke" d="
  M 493.96 390.31
  Q 491.88 389.88 490.74 393.00
  Q 487.81 401.09 484.32 408.93
  C 480.91 416.59 476.36 424.28 472.02 431.79
  Q 467.61 439.42 461.70 445.96
  C 458.68 449.30 456.38 453.30 452.52 457.72
  Q 451.48 458.92 452.48 459.80"
/>
<path stroke="#808080" vector-effect="non-scaling-stroke" d="
  M 384.52 506.54
  C 382.85 499.26 378.67 500.51 373.55 503.36
  Q 360.77 510.48 346.69 514.66
  C 331.28 519.23 315.11 519.79 299.22 518.49
  C 281.82 517.07 265.69 511.80 250.64 503.29
  C 245.45 500.35 242.06 500.61 240.51 507.02"
/>
<path stroke="#ffb686" vector-effect="non-scaling-stroke" d="
  M 172.83 461.42
  Q 173.35 459.04 172.27 457.47
  C 167.63 450.74 160.47 443.17 155.93 436.57
  C 147.17 423.83 141.04 410.73 135.16 396.07
  Q 134.55 394.54 133.45 393.75
  Q 131.99 392.70 130.71 392.44"
/>
<path stroke="#ffb686" vector-effect="non-scaling-stroke" d="
  M 201.89 161.03
  A 22.40 22.40 0.0 0 0 179.49 138.63
  A 22.40 22.40 0.0 0 0 157.09 161.03
  A 22.40 22.40 0.0 0 0 179.49 183.43
  A 22.40 22.40 0.0 0 0 201.89 161.03"
/>
<path stroke="#ffb686" vector-effect="non-scaling-stroke" d="
  M 456.84 161.12
  A 22.42 22.42 0.0 0 0 434.42 138.70
  A 22.42 22.42 0.0 0 0 412.00 161.12
  A 22.42 22.42 0.0 0 0 434.42 183.54
  A 22.42 22.42 0.0 0 0 456.84 161.12"
/>
<path stroke="#7f3607" vector-effect="non-scaling-stroke" d="
  M 252.29 159.28
  L 363.98 156.13
  A 0.34 0.34 0.0 0 0 364.10 155.48
  C 328.44 141.00 286.87 141.09 252.13 158.67
  Q 250.85 159.32 252.29 159.28"
/>
<path stroke="#7f3607" vector-effect="non-scaling-stroke" d="
  M 260.06 178.51
  L 355.49 175.80
  Q 356.74 175.77 355.66 175.14
  Q 354.98 174.74 353.71 174.26
  C 324.05 163.04 288.56 162.96 259.95 178.08
  Q 259.07 178.54 260.06 178.51"
/>
<path stroke="#7f3607" vector-effect="non-scaling-stroke" d="
  M 342.13 193.80
  Q 343.28 193.80 343.42 193.75
  Q 345.57 193.05 343.40 192.41
  C 340.17 191.46 336.77 190.07 333.83 189.30
  Q 301.90 180.96 272.08 194.72
  Q 270.56 195.42 272.24 195.40
  C 295.34 195.14 318.80 193.96 342.13 193.80"
/>
<path stroke="#7f3607" vector-effect="non-scaling-stroke" d="
  M 391.42 426.38
  C 340.51 406.58 285.24 404.97 233.89 423.54
  Q 233.16 423.80 233.59 424.45
  C 247.73 445.77 268.77 462.90 293.94 469.31
  C 333.20 479.29 369.26 458.93 391.91 428.04
  Q 392.75 426.90 391.42 426.38"
/>
<path stroke="#808080" vector-effect="non-scaling-stroke" d="
  M 210.2200 331.3700
  A 26.45 13.94 90.0 0 0 224.1600 304.9200
  A 26.45 13.94 90.0 0 0 210.2200 278.4700
  A 26.45 13.94 90.0 0 0 196.2800 304.9200
  A 26.45 13.94 90.0 0 0 210.2200 331.3700"
/>
<path stroke="#808080" vector-effect="non-scaling-stroke" d="
  M 412.4639 331.3300
  A 26.44 13.87 90.1 0 0 426.3800 304.9142
  A 26.44 13.87 90.1 0 0 412.5561 278.4500
  A 26.44 13.87 90.1 0 0 398.6400 304.8658
  A 26.44 13.87 90.1 0 0 412.4639 331.3300"
/>
</g>
<path fill="#fe6c0d" d="
  M 495.02 270.68
  Q 493.44 271.36 492.43 269.99
  C 487.93 263.89 477.02 259.25 470.16 256.64
  C 436.27 243.78 397.15 245.54 365.30 263.33
  Q 361.19 265.62 357.43 268.66
  A 1.22 1.21 65.9 0 0 356.99 269.83
  Q 357.22 271.16 357.71 272.73
  Q 380.90 347.31 404.49 421.76
  C 405.32 424.39 406.05 425.88 404.65 428.52
  Q 402.32 432.91 398.71 437.72
  C 383.84 457.56 365.45 472.83 341.76 480.77
  C 294.35 496.64 247.61 472.59 221.23 432.50
  C 219.47 429.83 217.59 426.95 218.35 424.54
  Q 242.52 347.37 266.74 270.47
  Q 267.15 269.15 266.02 268.36
  C 229.25 242.77 176.76 241.87 138.27 263.98
  Q 136.44 265.03 134.13 267.60
  Q 132.28 269.66 130.28 268.22
  Q 137.02 248.22 147.86 229.89
  C 149.22 227.59 149.61 225.23 150.11 222.73
  A 1.96 1.96 0.0 0 0 149.36 220.78
  C 145.82 218.12 142.32 216.21 139.13 213.13
  Q 138.78 212.79 138.31 212.70
  C 131.21 211.28 119.40 189.30 117.25 184.27
  C 111.07 169.80 111.81 147.49 118.83 134.07
  C 122.72 126.64 124.67 122.34 130.01 117.52
  C 138.55 109.81 145.23 102.98 156.26 99.09
  C 164.59 96.16 174.89 93.50 184.58 95.33
  C 188.02 95.97 191.74 95.46 194.80 96.54
  C 200.09 98.39 205.75 99.87 210.43 102.45
  C 219.59 107.50 228.22 114.31 234.27 122.89
  C 237.96 128.12 240.63 135.14 243.38 141.40
  C 243.85 142.47 243.71 144.29 244.80 145.35
  Q 245.17 145.70 245.67 145.60
  Q 253.60 144.08 261.02 141.06
  Q 266.06 139.01 269.71 138.17
  Q 282.54 135.19 286.48 134.43
  C 293.16 133.13 300.49 133.19 307.57 132.47
  C 309.78 132.24 315.14 131.33 317.43 132.47
  Q 317.87 132.69 318.37 132.69
  Q 338.40 132.81 355.26 138.67
  Q 361.73 140.91 364.21 141.47
  Q 364.70 141.58 365.00 141.98
  Q 365.86 143.09 367.31 143.10
  A 0.30 0.27 68.3 0 1 367.53 143.21
  Q 368.65 144.53 370.23 143.75
  A 1.43 1.16 -27.6 0 0 370.98 142.01
  Q 370.80 141.69 371.12 140.87
  C 374.16 133.08 377.71 125.09 382.83 118.74
  C 391.46 108.02 401.66 102.62 414.76 97.52
  C 421.16 95.03 429.66 95.34 436.49 94.99
  C 439.52 94.83 441.99 95.52 444.15 95.71
  Q 446.29 95.90 448.43 96.17
  C 452.33 96.65 456.33 98.39 460.02 99.72
  C 475.88 105.43 486.33 117.08 494.28 131.57
  C 496.16 134.99 496.75 139.14 498.64 142.87
  C 500.32 146.19 500.22 153.61 500.41 157.75
  Q 500.53 160.30 500.02 161.38
  Q 499.88 161.67 500.07 161.93
  L 500.27 162.21
  Q 500.37 162.34 500.37 162.50
  Q 500.79 171.74 499.84 174.80
  C 498.68 178.57 497.83 182.37 496.26 185.95
  C 494.67 189.57 493.31 193.24 491.14 196.47
  Q 488.76 200.02 486.15 203.41
  Q 485.83 203.83 485.85 203.30
  Q 485.86 203.17 485.88 202.86
  A 0.70 0.70 0.0 0 0 484.55 202.51
  Q 482.36 206.89 479.50 209.49
  Q 475.95 212.70 471.69 216.44
  A 1.87 1.86 -34.3 0 0 471.26 218.69
  C 472.52 221.14 473.08 224.35 474.60 226.76
  Q 475.25 227.79 475.82 228.86
  Q 486.68 249.40 495.02 270.68
  Z
  M 201.89 161.03
  A 22.40 22.40 0.0 0 0 179.49 138.63
  A 22.40 22.40 0.0 0 0 157.09 161.03
  A 22.40 22.40 0.0 0 0 179.49 183.43
  A 22.40 22.40 0.0 0 0 201.89 161.03
  Z
  M 456.84 161.12
  A 22.42 22.42 0.0 0 0 434.42 138.70
  A 22.42 22.42 0.0 0 0 412.00 161.12
  A 22.42 22.42 0.0 0 0 434.42 183.54
  A 22.42 22.42 0.0 0 0 456.84 161.12
  Z
  M 252.29 159.28
  L 363.98 156.13
  A 0.34 0.34 0.0 0 0 364.10 155.48
  C 328.44 141.00 286.87 141.09 252.13 158.67
  Q 250.85 159.32 252.29 159.28
  Z
  M 260.06 178.51
  L 355.49 175.80
  Q 356.74 175.77 355.66 175.14
  Q 354.98 174.74 353.71 174.26
  C 324.05 163.04 288.56 162.96 259.95 178.08
  Q 259.07 178.54 260.06 178.51
  Z
  M 342.13 193.80
  Q 343.28 193.80 343.42 193.75
  Q 345.57 193.05 343.40 192.41
  C 340.17 191.46 336.77 190.07 333.83 189.30
  Q 301.90 180.96 272.08 194.72
  Q 270.56 195.42 272.24 195.40
  C 295.34 195.14 318.80 193.96 342.13 193.80
  Z
  M 391.42 426.38
  C 340.51 406.58 285.24 404.97 233.89 423.54
  Q 233.16 423.80 233.59 424.45
  C 247.73 445.77 268.77 462.90 293.94 469.31
  C 333.20 479.29 369.26 458.93 391.91 428.04
  Q 392.75 426.90 391.42 426.38
  Z"
/>
<circle fill="#ffffff" cx="179.49" cy="161.03" r="22.40"/>
<circle fill="#ffffff" cx="434.42" cy="161.12" r="22.42"/>
<path fill="#000000" d="
  M 363.98 156.13
  L 252.29 159.28
  Q 250.85 159.32 252.13 158.67
  C 286.87 141.09 328.44 141.00 364.10 155.48
  A 0.34 0.34 0.0 0 1 363.98 156.13
  Z"
/>
<path fill="#000000" d="
  M 355.49 175.80
  L 260.06 178.51
  Q 259.07 178.54 259.95 178.08
  C 288.56 162.96 324.05 163.04 353.71 174.26
  Q 354.98 174.74 355.66 175.14
  Q 356.74 175.77 355.49 175.80
  Z"
/>
<path fill="#000000" d="
  M 342.13 193.80
  C 318.80 193.96 295.34 195.14 272.24 195.40
  Q 270.56 195.42 272.08 194.72
  Q 301.90 180.96 333.83 189.30
  C 336.77 190.07 340.17 191.46 343.40 192.41
  Q 345.57 193.05 343.42 193.75
  Q 343.28 193.80 342.13 193.80
  Z"
/>
<path fill="#ffffff" d="
  M 495.02 270.68
  Q 495.87 275.75 497.13 280.60
  C 506.74 317.47 505.94 353.75 493.96 390.31
  Q 491.88 389.88 490.74 393.00
  Q 487.81 401.09 484.32 408.93
  C 480.91 416.59 476.36 424.28 472.02 431.79
  Q 467.61 439.42 461.70 445.96
  C 458.68 449.30 456.38 453.30 452.52 457.72
  Q 451.48 458.92 452.48 459.80
  C 433.79 480.42 410.17 496.11 384.52 506.54
  C 382.85 499.26 378.67 500.51 373.55 503.36
  Q 360.77 510.48 346.69 514.66
  C 331.28 519.23 315.11 519.79 299.22 518.49
  C 281.82 517.07 265.69 511.80 250.64 503.29
  C 245.45 500.35 242.06 500.61 240.51 507.02
  Q 226.06 500.66 221.50 498.24
  Q 197.63 485.57 178.34 466.67
  Q 175.59 463.98 172.83 461.42
  Q 173.35 459.04 172.27 457.47
  C 167.63 450.74 160.47 443.17 155.93 436.57
  C 147.17 423.83 141.04 410.73 135.16 396.07
  Q 134.55 394.54 133.45 393.75
  Q 131.99 392.70 130.71 392.44
  Q 120.93 363.66 120.31 334.74
  Q 119.59 301.32 130.28 268.22
  Q 132.28 269.66 134.13 267.60
  Q 136.44 265.03 138.27 263.98
  C 176.76 241.87 229.25 242.77 266.02 268.36
  Q 267.15 269.15 266.74 270.47
  Q 242.52 347.37 218.35 424.54
  C 217.59 426.95 219.47 429.83 221.23 432.50
  C 247.61 472.59 294.35 496.64 341.76 480.77
  C 365.45 472.83 383.84 457.56 398.71 437.72
  Q 402.32 432.91 404.65 428.52
  C 406.05 425.88 405.32 424.39 404.49 421.76
  Q 380.90 347.31 357.71 272.73
  Q 357.22 271.16 356.99 269.83
  A 1.22 1.21 65.9 0 1 357.43 268.66
  Q 361.19 265.62 365.30 263.33
  C 397.15 245.54 436.27 243.78 470.16 256.64
  C 477.02 259.25 487.93 263.89 492.43 269.99
  Q 493.44 271.36 495.02 270.68
  Z
  M 210.2200 331.3700
  A 26.45 13.94 90.0 0 0 224.1600 304.9200
  A 26.45 13.94 90.0 0 0 210.2200 278.4700
  A 26.45 13.94 90.0 0 0 196.2800 304.9200
  A 26.45 13.94 90.0 0 0 210.2200 331.3700
  Z
  M 412.4639 331.3300
  A 26.44 13.87 90.1 0 0 426.3800 304.9142
  A 26.44 13.87 90.1 0 0 412.5561 278.4500
  A 26.44 13.87 90.1 0 0 398.6400 304.8658
  A 26.44 13.87 90.1 0 0 412.4639 331.3300
  Z"
/>
<ellipse fill="#000000" cx="0.00" cy="0.00" transform="translate(210.22,304.92) rotate(90.0)" rx="26.45" ry="13.94"/>
<ellipse fill="#000000" cx="0.00" cy="0.00" transform="translate(412.51,304.89) rotate(90.1)" rx="26.44" ry="13.87"/>
<path fill="#fe6c0d" d="
  M 493.96 390.31
  Q 499.47 394.65 507.11 396.08
  Q 507.60 396.17 507.99 396.48
  C 508.73 397.08 509.49 396.92 510.27 397.18
  Q 517.65 399.70 524.07 401.37
  Q 526.82 402.08 524.15 403.02
  C 522.52 403.59 517.90 404.70 516.92 406.28
  Q 516.66 406.70 516.20 406.89
  Q 512.93 408.25 509.78 409.85
  C 507.10 411.22 503.82 411.63 501.01 413.28
  C 500.04 413.85 498.04 414.27 497.12 415.60
  Q 496.81 416.04 497.17 416.43
  C 501.64 421.32 504.62 428.99 507.41 434.99
  C 507.92 436.08 508.94 436.82 509.09 438.27
  Q 509.15 438.77 509.53 439.10
  Q 510.11 439.60 509.97 440.36
  Q 509.86 440.92 510.20 441.38
  Q 512.15 444.05 513.15 447.25
  A 0.62 0.61 -10.6 0 1 512.60 448.05
  Q 502.42 448.63 493.12 448.38
  Q 490.89 448.32 489.36 448.41
  C 486.27 448.59 483.56 447.89 480.53 448.02
  Q 480.00 448.04 480.09 448.57
  Q 480.56 451.12 480.91 453.63
  C 481.26 456.11 482.49 458.44 482.89 461.05
  C 483.30 463.67 484.66 466.08 484.26 469.10
  A 1.19 1.14 35.2 0 0 484.41 469.86
  Q 484.93 470.74 485.00 471.77
  Q 485.03 472.20 484.60 472.13
  Q 482.97 471.85 481.37 471.43
  C 478.84 470.77 476.55 468.71 473.97 468.22
  C 468.64 467.19 464.28 464.91 459.63 462.22
  Q 457.96 461.25 456.16 460.80
  Q 454.22 460.30 452.48 459.80
  Q 451.48 458.92 452.52 457.72
  C 456.38 453.30 458.68 449.30 461.70 445.96
  Q 467.61 439.42 472.02 431.79
  C 476.36 424.28 480.91 416.59 484.32 408.93
  Q 487.81 401.09 490.74 393.00
  Q 491.88 389.88 493.96 390.31
  Z"
/>
<path fill="#fe6c0d" d="
  M 130.71 392.44
  Q 131.99 392.70 133.45 393.75
  Q 134.55 394.54 135.16 396.07
  C 141.04 410.73 147.17 423.83 155.93 436.57
  C 160.47 443.17 167.63 450.74 172.27 457.47
  Q 173.35 459.04 172.83 461.42
  L 170.65 461.13
  Q 170.18 461.06 169.84 460.74
  Q 168.76 459.72 167.36 460.84
  C 162.44 464.77 155.93 467.33 149.97 469.08
  Q 149.51 469.22 149.13 469.52
  Q 148.49 470.02 147.67 470.18
  C 145.39 470.62 142.46 473.66 140.48 471.87
  Q 140.18 471.60 140.26 471.21
  C 140.67 469.31 140.87 467.81 141.73 465.91
  Q 143.32 462.37 141.94 458.67
  Q 141.75 458.16 142.00 457.68
  Q 144.07 453.55 143.77 448.94
  Q 143.74 448.41 143.20 448.42
  C 138.43 448.51 133.70 447.76 128.91 448.02
  Q 121.37 448.43 121.22 448.43
  Q 117.47 448.52 113.48 448.80
  A 1.33 1.33 0.0 0 1 112.17 446.93
  L 125.71 417.18
  A 0.87 0.85 52.6 0 0 125.77 416.70
  Q 125.56 415.70 126.50 415.75
  A 0.17 0.17 0.0 0 0 126.61 415.44
  Q 125.86 414.90 125.78 414.03
  Q 125.74 413.48 125.22 413.29
  L 118.19 410.70
  Q 117.78 410.55 117.69 410.12
  L 117.57 409.55
  Q 117.45 408.99 116.88 409.04
  C 114.39 409.26 111.08 407.13 107.80 406.20
  C 106.04 405.70 104.90 404.37 102.99 403.89
  A 1.58 1.54 77.5 0 1 102.15 403.34
  L 100.94 401.80
  A 0.73 0.73 0.0 0 1 101.27 400.66
  Q 106.93 398.65 112.18 397.16
  C 114.18 396.58 117.46 396.39 120.00 395.56
  Q 121.87 394.95 123.08 394.69
  Q 126.61 393.91 130.71 392.44
  Z"
/>
<path fill="#000000" d="
  M 233.89 423.54
  C 285.24 404.97 340.51 406.58 391.42 426.38
  Q 392.75 426.90 391.91 428.04
  C 369.26 458.93 333.20 479.29 293.94 469.31
  C 268.77 462.90 247.73 445.77 233.59 424.45
  Q 233.16 423.80 233.89 423.54
  Z"
/>
<ellipse fill="#fe6c0d" cx="0.00" cy="0.00" transform="translate(140.98,463.64) rotate(114.8)" rx="1.50" ry="0.34"/>
<path fill="#fe6c0d" d="
  M 473.64 469.19
  Q 475.04 469.36 476.03 470.29
  Q 476.17 470.42 476.03 470.54
  L 475.77 470.75
  Q 475.59 470.90 475.46 470.71
  Q 474.77 469.68 473.49 469.50
  Q 473.40 469.49 473.43 469.35
  L 473.44 469.34
  Q 473.47 469.17 473.64 469.19
  Z"
/>
<path fill="#000000" d="
  M 384.52 506.54
  C 383.50 508.30 382.70 509.72 380.76 510.68
  Q 376.70 512.68 372.73 514.83
  Q 368.44 517.14 364.55 518.62
  C 358.76 520.83 352.83 523.26 347.04 524.71
  Q 293.58 538.14 244.98 511.23
  Q 241.65 509.38 240.51 507.02
  C 242.06 500.61 245.45 500.35 250.64 503.29
  C 265.69 511.80 281.82 517.07 299.22 518.49
  C 315.11 519.79 331.28 519.23 346.69 514.66
  Q 360.77 510.48 373.55 503.36
  C 378.67 500.51 382.85 499.26 384.52 506.54
  Z"
/>
</svg>
